<svg xmlns="http://www.w3.org/2000/svg" version="1.1" xmlns:xlink="http://www.w3.org/1999/xlink" xmlns:svgjs="http://svgjs.dev/svgjs" width="1000" height="469" viewBox="0 0 1000 469"><g transform="matrix(1,0,0,1,-0.6060606060606233,0.2459573665346113)"><svg viewBox="0 0 396 186" data-background-color="#ffffff" preserveAspectRatio="xMidYMid meet" height="469" width="1000" xmlns="http://www.w3.org/2000/svg" xmlns:xlink="http://www.w3.org/1999/xlink"><g id="tight-bounds" transform="matrix(1,0,0,1,0.2400000000000091,-0.0975438596491216)"><svg viewBox="0 0 395.52 186.19508771929824" height="186.19508771929824" width="395.52"><g><svg viewBox="0 0 395.52 186.19508771929824" height="186.19508771929824" width="395.52"><g><svg viewBox="0 0 395.52 186.19508771929824" height="186.19508771929824" width="395.52"><g id="textblocktransform"><svg viewBox="0 0 395.52 186.19508771929824" height="186.19508771929824" width="395.52" id="textblock"><g><svg viewBox="0 0 395.52 186.19508771929824" height="186.19508771929824" width="395.52"><g transform="matrix(1,0,0,1,0,0)"><svg width="395.52" viewBox="5.44 -38.16 108.54 51.099999999999994" height="186.19508771929824" data-palette-color="#39cccc"><path d="M5.44 0L5.44-38.16 13.18-38.16 27.05-24.24 40.92-38.16 48.66-38.16 48.66 0 40.92 0 40.92-27.44 27.05-14.09 13.18-27.44 13.18 0 5.44 0ZM55.17 12.94L52.17 6.32Q53.85 5.3 55.06 4.17 56.27 3.05 57.05 1.7 57.83 0.34 58.2-1.33 58.57-3 58.57-5.13L58.57-5.13 58.57-38.16 66.31-38.16 66.31-6.52Q66.31-3.98 66.09-1.89 65.87 0.2 65.37 1.94 64.87 3.69 64.02 5.15 63.18 6.62 61.95 7.93 60.72 9.25 59.04 10.47 57.37 11.69 55.17 12.94L55.17 12.94ZM76.19 0L76.19-38.16 83.93-38.16 83.93-18.41 104.07-38.16 113.98-38.16 95.19-19.95 113.98 0 103.68 0 89.62-14.55 83.93-9.06 83.93 0 76.19 0Z" opacity="1" transform="matrix(1,0,0,1,0,0)" fill="#39cccc" class="undefined-text-0" data-fill-palette-color="primary" id="text-0"></path></svg></g></svg></g></svg></g></svg></g></svg></g><defs></defs></svg><rect width="395.52" height="186.19508771929824" fill="none" stroke="none" visibility="hidden"></rect></g></svg></g></svg>